{"accessors" : [{"bufferView" : 0, "byteOffset" : 0, "componentType" : 5123, "count" : 5130, "type" : "SCALAR", "max" : [4259], "min" : [0]}, {"bufferView" : 1, "byteOffset" : 0, "componentType" : 5126, "count" : 4260, "type" : "VEC3", "max" : [32.39860153198242, 31.657499313354492, 9.89050006866455], "min" : [-32.53390121459961, -31.361499786376953, -3.1967999935150146], "name" : "POSITION"}, {"bufferView" : 1, "byteOffset" : 12, "componentType" : 5126, "count" : 4260, "type" : "VEC2", "max" : [0.9581000208854675, 0.967199981212616], "min" : [0.034299999475479126, 0.013000011444091797], "name" : "TEXCOORD_0"}, {"bufferView" : 1, "byteOffset" : 20, "componentType" : 5126, "count" : 4260, "type" : "VEC3", "max" : [0.9999625086784363, 0.9954742193222046, 1.0000044107437134], "min" : [-0.9999625086784363, -0.9947959780693054, -1.0000044107437134], "name" : "NORMAL"}], "asset" : {"generator" : "Aspose.3D 24.1.0", "version" : "2.0"}, "buffers" : [{"uri" : "data:application/octet-stream;base64,", "byteLength" : 174428}], "bufferViews" : [{"buffer" : 0, "byteOffset" : 0, "byteLength" : 10260, "target" : 34963}, {"buffer" : 0, "byteOffset" : 10264, "byteLength" : 164160, "byteStride" : 32, "target" : 34962}], "meshes" : [{"primitives" : [{"attributes" : {"POSITION" : 1, "TEXCOORD_0" : 2, "NORMAL" : 3}, "indices" : 0, "mode" : 4}], "name" : ""}], "nodes" : [{"mesh" : 0, "name" : "SmileFriedEgg"}], "scene" : 0, "scenes" : [{"nodes" : [0]}]}